<svg width="44" height="44" viewBox="0 0 44 44" fill="none" xmlns="http://www.w3.org/2000/svg">
<path d="M23.5 9C23.5 8.17157 22.8284 7.5 22 7.5C21.1716 7.5 20.5 8.17157 20.5 9H23.5ZM22 24H20.5V25.5H22V24ZM36 25.5C36.8284 25.5 37.5 24.8284 37.5 24C37.5 23.1716 36.8284 22.5 36 22.5V25.5ZM8 7.71713L6.94993 6.64598L6.94993 6.64598L8 7.71713ZM14.6393 3.398L15.1916 4.79262L15.1916 4.79262L14.6393 3.398ZM2.85015 16.2126L1.41412 15.7792L2.85015 16.2126ZM40.5 22C40.5 32.2173 32.2173 40.5 22 40.5V43.5C33.8741 43.5 43.5 33.8741 43.5 22H40.5ZM22 40.5C11.7827 40.5 3.5 32.2173 3.5 22H0.5C0.5 33.8741 10.1259 43.5 22 43.5V40.5ZM22 3.5C32.2173 3.5 40.5 11.7827 40.5 22H43.5C43.5 10.1259 33.8741 0.5 22 0.5V3.5ZM20.5 9V24H23.5V9H20.5ZM36 22.5H22V25.5H36V22.5ZM7.35303 10.6973C7.87461 10.0224 8.44183 9.38455 9.05007 8.78828L6.94993 6.64598C6.24376 7.33826 5.58513 8.07892 4.97938 8.86264L7.35303 10.6973ZM13.6759 5.47366C14.169 5.22479 14.6746 4.99737 15.1916 4.79262L14.087 2.00338C13.4855 2.24159 12.8974 2.50611 12.3241 2.7955L13.6759 5.47366ZM15.1916 4.79262C15.7521 4.57067 16.326 4.37533 16.9117 4.20816L16.0883 1.32336C15.4068 1.51788 14.7391 1.74516 14.087 2.00338L15.1916 4.79262ZM9.05007 8.78828C9.45209 8.39417 9.87201 8.01826 10.3085 7.66191L8.41113 5.33809C7.90428 5.75192 7.41671 6.1884 6.94993 6.64598L9.05007 8.78828ZM3.5 22C3.5 21.8451 3.5019 21.6907 3.50568 21.5368L0.506579 21.4632C0.502201 21.6416 0.5 21.8206 0.5 22H3.5ZM4.0325 17.5738C4.10919 17.2613 4.19382 16.952 4.28617 16.646L1.41412 15.7792C1.30667 16.1352 1.2082 16.4951 1.11897 16.8586L4.0325 17.5738ZM4.28617 16.646C4.382 16.3285 4.48614 16.0145 4.59834 15.7045L1.77735 14.6837C1.64681 15.0444 1.52563 15.4097 1.41412 15.7792L4.28617 16.646Z" fill="#333333"/>
</svg>
