<svg width="24" height="24" viewBox="0 0 24 24" fill="none" xmlns="http://www.w3.org/2000/svg">
<path d="M16.2859 16.2859L22 22M10.1818 2C8.56357 2 6.98171 2.47985 5.63623 3.37888C4.29074 4.2779 3.24206 5.55572 2.6228 7.05074C2.00354 8.54577 1.84152 10.1908 2.15721 11.778C2.47291 13.3651 3.25215 14.8229 4.39639 15.9672C5.54063 17.1114 6.99848 17.8906 8.58559 18.2063C10.1727 18.522 11.8178 18.36 13.3128 17.7407C14.8078 17.1215 16.0856 16.0728 16.9847 14.7273C17.8837 13.3818 18.3635 11.8 18.3635 10.1818C18.3634 8.01187 17.5014 5.93089 15.967 4.39654C14.4327 2.86219 12.3517 2.00014 10.1818 2Z" stroke="#666666" stroke-width="3" stroke-miterlimit="10" stroke-linecap="round"/>
</svg>
